<svg viewBox="0 0 40 40" xmlns="http://www.w3.org/2000/svg" fill="none" overflow="hidden"><rect rx="20" width="40" height="40" fill="#9BB562"/><path d="M9.476 14.683c-.175-.514-.385-.866-.63-1.053-.236-.188-.664-.282-1.283-.282V12h6.7v1.348c-1.007 0-1.599.073-1.775.22-.175.147-.26.307-.252.478a2.7 2.7 0 0 0 .126.637l3.23 11.334L19.738 12h1.5l4.227 13.968 3.15-11.285c.038-.147.057-.318.057-.514 0-.205-.142-.392-.424-.564-.275-.171-.855-.257-1.74-.257V12h5.92v1.348c-.572 0-1.011.102-1.317.306-.305.196-.53.54-.675 1.03L25.74 30.377h-1.49l-4.237-13.416-4.077 13.416h-1.34l-5.12-15.695Z" fill="#FFF"/></svg>